Patient4_TMGait_0pt4_02_right_38_GRF.mot
version=1
nRows=32
nColumns=19
inDegrees=no
endheader
time	F1x	F1y	F1z	M1x	M1y	M1z	F2x	F2y	F2z	M2x	M2y	M2z	EC1x	EC1y	EC1z	EC2x	EC2y	EC2z
50.14	-38.0251	751.5135	71.7428	-228.6882	-86.0093	811.8694	19.1369	21.8861	-7.0991	5.7462	1.0901	21.6404	-0.0592	0.0182	-0.0073	-0.0462	0.0165	0.9585
50.1531	-32.1863	744.7484	74.3767	-225.6789	-86.5464	804.3178	12.7519	15.5625	-4.8686	4.1764	0.88108	15.4759	-0.0592	0.0182	-0.0073	-0.0462	0.0165	0.9585
50.1663	-26.5583	736.4969	76.2519	-222.2508	-86.3115	794.4137	7.4079	10.2405	-2.9852	2.8541	0.69442	10.2969	-0.0592	0.0182	-0.0073	-0.0462	0.0165	0.9585
50.1794	-21.3645	727.8485	77.2555	-218.8332	-85.2734	783.2531	3.3866	6.2269	-1.5629	1.8614	0.5545	6.4037	-0.0592	0.0182	-0.0073	-0.0462	0.0165	0.9585
50.1926	-16.6095	720.1033	77.4204	-215.9	-83.489	772.2259	0.63177	3.4991	-0.59653	1.195	0.47071	3.7713	-0.0592	0.0182	-0.0073	-0.0462	0.0165	0.9585
50.2057	-12.1805	714.4275	76.9195	-213.8568	-81.1155	762.6189	-1.0652	1.8567	-0.019325	0.80308	0.43938	2.1891	-0.0592	0.0182	-0.0073	-0.0462	0.0165	0.9585
50.2189	-7.9115	711.6783	75.9163	-212.9904	-78.2788	755.3973	-1.9713	1.0402	0.25993	0.61624	0.45461	1.4012	-0.0592	0.0182	-0.0073	-0.0462	0.0165	0.9585
50.232	-3.6423	712.3237	74.62	-213.4423	-75.1388	751.1262	-2.3523	0.75038	0.33067	0.55392	0.51369	1.1142	-0.0592	0.0182	-0.0073	-0.0462	0.0165	0.9585
50.2451	0.75639	716.4199	73.1934	-215.2082	-71.8154	749.939	-2.439	0.71082	0.27284	0.53901	0.61016	1.0562	-0.0592	0.0182	-0.0073	-0.0462	0.0165	0.9585
50.2583	5.3614	723.6483	71.7932	-218.1535	-68.4369	751.5806	-2.3902	0.69166	0.14721	0.50146	0.73497	0.99092	-0.0592	0.0182	-0.0073	-0.0462	0.0165	0.9585
50.2714	10.1775	733.382	70.5078	-222.0412	-65.0876	755.4985	-2.3142	0.48255	-0.00019332	0.37424	0.87558	0.69371	-0.0592	0.0182	-0.0073	-0.0462	0.0165	0.9585
50.2846	15.1603	744.7148	69.4083	-226.5377	-61.8543	760.8716	-2.2711	-0.08203	-0.14141	0.10089	1.022	-0.010202	-0.0592	0.0182	-0.0073	-0.0462	0.0165	0.9585
50.2977	20.2314	756.4975	68.5264	-231.2293	-58.7974	766.6339	-2.2428	-1.1123	-0.25642	-0.3583	1.1471	-1.245	-0.0592	0.0182	-0.0073	-0.0462	0.0165	0.9585
50.3109	25.3027	767.4745	67.8887	-235.671	-55.9788	771.6303	-2.1841	-2.6618	-0.32843	-1.021	1.2091	-3.0662	-0.0592	0.0182	-0.0073	-0.0462	0.0165	0.9585
50.324	30.2789	776.4423	67.479	-239.4395	-53.4204	774.7665	-1.994	-4.6848	-0.33379	-1.8644	1.1415	-5.4217	-0.0592	0.0182	-0.0073	-0.0462	0.0165	0.9585
50.3371	35.0527	782.3722	67.273	-242.1667	-51.1424	775.1363	-1.5161	-6.9469	-0.24345	-2.7956	0.85289	-8.0441	-0.0592	0.0182	-0.0073	-0.0462	0.0165	0.9585
50.3503	39.4778	784.4446	67.2177	-243.5545	-49.1508	772.0492	-0.55628	-8.9878	-0.021506	-3.629	0.21978	-10.4053	-0.0592	0.0182	-0.0073	-0.0462	0.0165	0.9585
50.3634	43.3766	782.0946	67.2804	-243.3908	-47.4838	765.076	1.0918	-10.0415	0.37213	-4.0528	-0.88754	-11.6187	-0.0592	0.0182	-0.0073	-0.0462	0.0165	0.9585
50.3766	46.6095	775.1464	67.4155	-241.5984	-46.1546	754.1498	3.6226	-8.9342	0.9667	-3.5916	-2.5776	-10.3215	-0.0592	0.0182	-0.0073	-0.0462	0.0165	0.9585
50.3897	49.1287	763.9107	67.6169	-238.2628	-45.1864	739.6507	7.1525	-4.0736	1.7724	-1.5986	-4.9053	-4.6667	-0.0592	0.0182	-0.0073	-0.0462	0.0165	0.9585
50.4029	50.9444	749.0034	67.8709	-233.5755	-44.5767	722.2336	11.605	6.5008	2.7568	2.722	-7.8007	7.6302	-0.0592	0.0182	-0.0073	-0.0462	0.0165	0.9585
50.416	52.0912	731.062	68.1401	-227.7433	-44.2937	702.5641	16.6193	24.94	3.821	10.2395	-10.998	29.0681	-0.0592	0.0182	-0.0073	-0.0462	0.0165	0.9585
50.4291	52.5846	710.4564	68.2843	-220.8965	-44.2128	681.0372	21.36	53.1901	4.7582	21.7335	-13.9172	61.9018	-0.0592	0.0182	-0.0073	-0.0462	0.0165	0.9585
50.4423	52.3702	687.0186	68.0907	-213.0036	-44.1596	657.5353	24.3791	92.3198	5.2352	37.6244	-15.5882	107.3593	-0.0592	0.0182	-0.0073	-0.0462	0.0165	0.9585
50.4554	51.3146	659.987	67.2403	-203.8605	-43.8815	631.3613	23.6382	141.6518	4.7893	57.6153	-14.6576	164.6266	-0.0592	0.0182	-0.0073	-0.0462	0.0165	0.9585
50.4686	49.2646	628.3219	65.4044	-193.196	-43.1154	601.5093	17.6214	198.4769	2.7392	80.5582	-9.7573	230.5921	-0.0592	0.0182	-0.0073	-0.0462	0.0165	0.9585
50.4817	46.1716	591.3567	62.2748	-180.8806	-41.5719	567.2515	7.4441	258.9838	-1.3513	104.8459	-0.85138	300.8147	-0.0592	0.0182	-0.0073	-0.0462	0.0165	0.9585
50.4949	42.1753	549.1086	57.757	-167.016	-39.0896	528.3984	-4.3804	319.0914	-7.3149	128.8192	10.8047	370.2991	-0.0592	0.0182	-0.0073	-0.0462	0.0165	0.9585
50.508	37.6124	502.2001	51.9843	-151.8946	-35.6445	485.229	-15.6713	376.2027	-14.4533	151.4525	23.5167	435.7511	-0.0592	0.0182	-0.0073	-0.0462	0.0165	0.9585
50.5211	32.8694	451.6468	45.2736	-135.9085	-31.3574	438.3827	-25.1939	429.5323	-21.8578	172.4677	35.748	496.1275	-0.0592	0.0182	-0.0073	-0.0462	0.0165	0.9585
50.5343	28.1684	398.419	38.0654	-119.3902	-26.5224	388.5466	-32.4282	479.071	-28.8201	191.9053	46.4814	551.4158	-0.0592	0.0182	-0.0073	-0.0462	0.0165	0.9585
50.5474	23.4963	343.4623	30.8695	-102.6053	-21.5831	336.5308	-37.256	524.9735	-34.9113	209.8566	55.1887	601.8319	-0.0592	0.0182	-0.0073	-0.0462	0.0165	0.9585
